<?xml version="1.0" standalone="no"?>
<!DOCTYPE svg PUBLIC "-//W3C//DTD SVG 20010904//EN"
 "http://www.w3.org/TR/2001/REC-SVG-20010904/DTD/svg10.dtd">
<svg version="1.0" xmlns="http://www.w3.org/2000/svg"
 width="400.000000pt" height="400.000000pt" viewBox="0 0 400.000000 400.000000"
 preserveAspectRatio="xMidYMid meet">

<g transform="translate(0.000000,400.000000) scale(0.100000,-0.100000)"
fill="#000000" stroke="none">
<path d="M1790 3989 c-428 -47 -847 -239 -1148 -524 l-64 -61 2 -359 c5 -751
8 -914 20 -1040 14 -149 7 -344 -14 -424 -17 -62 -23 -129 -36 -417 -7 -164
-14 -225 -30 -277 -61 -198 -76 -37 -87 978 -4 391 -8 855 -8 1032 l0 323 -21
-23 c-45 -46 -138 -196 -200 -322 -271 -551 -271 -1197 0 -1751 65 -132 152
-269 225 -357 l40 -48 31 60 c24 48 42 68 90 101 40 27 67 54 81 83 56 109
136 234 176 272 24 23 91 67 148 98 121 64 218 94 502 152 14 3 42 38 83 105
l62 101 -13 82 c-11 70 -18 88 -47 121 -62 70 -112 204 -112 302 0 22 -5 34
-13 34 -24 0 -49 37 -54 82 -3 24 -14 57 -25 75 -17 29 -18 43 -11 152 5 67 6
122 2 123 -3 2 -9 15 -12 29 -9 35 20 49 43 22 9 -10 26 -24 39 -31 l23 -14
-7 84 c-4 46 -11 92 -15 103 -4 11 -6 70 -5 132 2 90 6 117 22 140 10 15 25
41 33 58 8 16 35 51 60 77 25 25 46 50 47 55 1 4 7 9 15 11 8 2 9 0 3 -5 -5
-4 -11 -15 -13 -23 -2 -8 -13 -25 -25 -38 l-22 -24 30 8 c17 4 50 16 74 26 25
10 70 23 100 27 31 5 91 15 134 22 91 15 167 4 253 -36 48 -23 51 -26 49 -62
0 -21 5 -58 12 -82 8 -30 9 -50 2 -63 -5 -10 -7 -24 -3 -30 5 -7 0 -9 -14 -6
-15 4 -22 2 -22 -9 0 -8 5 -11 12 -7 8 5 9 2 4 -12 -5 -10 -10 -48 -12 -83 -5
-102 -15 -116 -110 -162 l-84 -39 0 -45 c0 -24 7 -63 16 -85 13 -33 14 -45 4
-72 -7 -18 -14 -65 -16 -105 -1 -51 -8 -81 -21 -100 -51 -76 -53 -103 -5 -103
34 0 70 -51 49 -68 -6 -6 -77 -12 -157 -15 -80 -3 -147 -6 -150 -6 -13 -2 63
-41 81 -41 13 0 18 -4 13 -12 -5 -8 0 -7 11 2 10 8 16 10 12 4 -8 -13 20 -41
30 -30 3 3 1 6 -5 6 -7 0 -12 7 -12 15 0 15 12 15 73 -2 26 -7 21 -23 -8 -23
-28 0 -33 -15 -9 -24 11 -4 15 -14 12 -31 -7 -32 16 -51 67 -54 53 -4 56 -7
52 -47 -3 -19 0 -34 6 -34 5 0 4 -6 -2 -14 -7 -8 -13 -29 -13 -47 -1 -29 -2
-30 -15 -14 -12 17 -13 17 -13 2 0 -9 -7 -17 -15 -17 -8 0 -15 7 -15 16 0 8
-5 12 -11 9 -5 -4 -8 -12 -6 -18 4 -14 -67 -57 -94 -57 -10 0 -19 -4 -19 -10
0 -15 -26 -12 -40 6 -8 8 -23 20 -34 26 -19 10 -18 8 4 -18 14 -16 32 -35 40
-42 8 -7 15 -17 15 -21 0 -4 15 -20 33 -35 17 -16 30 -32 27 -36 -3 -5 15 -16
40 -26 25 -9 45 -23 45 -30 0 -8 5 -14 10 -14 17 0 11 -40 -10 -63 -12 -12
-32 -46 -46 -75 -24 -52 -25 -54 -7 -67 21 -16 64 -9 76 12 4 7 15 13 22 13 8
0 16 5 16 10 1 6 2 15 3 20 2 19 63 49 74 38 8 -8 15 -8 26 1 7 6 18 11 22 10
25 -4 43 7 113 75 59 58 86 77 119 84 23 6 54 18 68 27 17 11 29 14 36 7 6 -6
21 -7 37 -2 29 8 91 2 91 -10 0 -4 10 -12 23 -17 13 -6 31 -26 40 -44 9 -19
17 -29 18 -24 0 6 4 -1 8 -15 6 -23 8 -22 28 20 l22 43 68 -2 c37 -1 77 -8 88
-15 11 -7 38 -19 59 -26 56 -18 145 -60 151 -71 4 -5 21 -9 38 -9 40 0 97 -26
184 -83 38 -23 97 -57 133 -74 70 -34 180 -126 167 -139 -4 -5 -11 -3 -15 3
-14 21 -66 1 -100 -38 -25 -29 -35 -50 -37 -81 -1 -24 -6 -53 -10 -66 -6 -19
-4 -22 17 -22 17 0 42 20 87 70 45 50 69 70 87 70 69 0 -9 -110 -152 -213 -77
-55 -90 -69 -98 -103 -5 -21 -21 -58 -37 -81 l-28 -43 25 -6 c34 -9 67 10 110
63 19 24 56 57 81 74 72 50 228 301 293 471 11 29 20 58 20 65 0 6 -20 21 -45
33 -25 12 -61 40 -81 63 l-36 42 6 120 c10 186 25 297 61 465 18 85 38 207 45
270 14 136 33 227 59 278 l19 37 -29 84 c-80 237 -237 486 -433 689 -304 315
-684 513 -1126 587 -116 19 -404 27 -520 14z m-92 -596 c-10 -2 -28 -2 -40 0
-13 2 -5 4 17 4 22 1 32 -1 23 -4z m22 -24 c0 -4 8 -10 18 -12 9 -2 -10 -4
-42 -3 -34 0 -61 6 -63 12 -2 7 13 11 42 10 25 0 45 -4 45 -7z m-95 -19 c3 -6
-1 -7 -9 -4 -18 7 -21 14 -7 14 6 0 13 -4 16 -10z m569 -742 c-12 -19 -30 -5
-32 25 l-2 32 19 -25 c11 -13 17 -28 15 -32z m36 -102 c0 4 9 -1 20 -11 10 -9
26 -15 35 -12 11 5 15 0 15 -16 0 -18 2 -19 10 -7 8 12 10 9 10 -13 0 -15 -9
-35 -19 -44 -11 -9 -18 -20 -16 -23 2 -4 -1 -7 -8 -8 -7 -1 -24 -4 -38 -7 -28
-7 -27 -9 -32 60 -1 22 -8 50 -15 61 -14 26 -6 37 19 23 11 -5 19 -7 19 -3z"/>
<path d="M1649 2809 c-7 -4 -17 -5 -21 -3 -4 3 -8 -2 -8 -10 0 -19 -21 -21
-38 -4 -9 9 -15 9 -24 -1 -11 -11 -10 -12 2 -6 13 8 13 7 1 -8 -12 -15 -9 -17
31 -17 25 0 48 -3 51 -7 4 -3 -10 -18 -31 -31 -20 -14 -40 -30 -44 -36 -23
-34 9 -35 48 -1 18 15 40 25 59 24 l30 -1 -30 -9 c-40 -12 -79 -43 -73 -59 2
-8 14 -4 35 14 31 26 49 34 39 17 -4 -5 -2 -21 4 -35 7 -20 17 -26 42 -27 l33
-1 -30 -7 -30 -7 25 -7 25 -8 -22 -9 c-35 -14 -27 -22 15 -14 39 7 83 29 81
42 -4 22 4 33 25 42 14 5 25 17 25 27 0 10 2 30 4 45 3 17 -2 33 -12 41 -31
28 -190 70 -212 56z m24 -31 c-6 -11 -31 -10 -37 1 -3 5 5 8 18 7 13 0 22 -4
19 -8z m37 -108 c0 -5 -5 -10 -11 -10 -5 0 -7 5 -4 10 3 6 8 10 11 10 2 0 4
-4 4 -10z m77 -56 c-3 -3 -12 -4 -19 -1 -8 3 -5 6 6 6 11 1 17 -2 13 -5z"/>
<path d="M1430 2530 c0 -5 5 -10 11 -10 5 0 7 5 4 10 -3 6 -8 10 -11 10 -2 0
-4 -4 -4 -10z"/>
<path d="M1837 2304 c-14 -14 6 -24 45 -24 35 0 39 2 28 15 -12 15 -61 21 -73
9z"/>
<path d="M1657 1496 c-4 -9 0 -37 8 -63 8 -27 19 -93 25 -148 7 -54 16 -107
21 -116 5 -10 9 -28 9 -41 0 -13 12 -40 26 -59 15 -19 24 -26 20 -15 -15 45
-76 308 -86 376 -12 81 -15 89 -23 66z"/>
<path d="M2632 1388 c-19 -28 -29 -48 -24 -45 13 9 66 87 61 91 -2 3 -19 -18
-37 -46z"/>
<path d="M1503 1098 c-25 -32 -26 -40 -4 -29 11 7 21 18 21 26 0 18 -5 19 -17
3z"/>
<path d="M3262 960 c-49 -22 -105 -60 -99 -66 4 -4 153 71 166 82 12 11 -30 1
-67 -16z"/>
<path d="M3130 629 c-65 -35 -88 -55 -47 -40 45 17 83 39 96 55 18 21 15 20
-49 -15z"/>
<path d="M3194 430 c-66 -34 -116 -69 -96 -70 21 0 126 56 146 79 25 27 20 27
-50 -9z"/>
</g>
</svg>
